<?xml version="1.0" encoding="UTF-8"?>
<svg id="Layer_1" data-name="Layer 1" xmlns="http://www.w3.org/2000/svg" viewBox="0 0 87.6 22.43">
  <defs>
    <style>
      .cls-1 {
        fill: #f97316;
      }

      .cls-2 {
        fill: #0a2463;
      }
    </style>
  </defs>
  <g>
    <path class="cls-1" d="M33.47,19.21c-.06-.47-.19-1.72-.78-1.79-.2-.03-.51.02-.75-.02-.09-.14-.13-.23-.27-.32-.16-.1-.28-.08-.49-.08-.12-.08-.03-.32-.36-.41-.22-.06-2.06.11-2.15.06-.14-.19-.12-.27-.33-.37-.35-.17-1.65-.04-1.88-.16.14-.04,1.11-.03,1.33-.03.27,0,.35-.03.61.04.34.09.73.28,1.04.07.14-.09.25-.16.32-.34.08-.2.02-1.02,0-1.29-.05-1.33-.25-7.07-.48-8.29-.03-.16-.07-.4-.12-.54-.16-.46-.94-1.09-1.31-1.39-.5-.4-1.08-.74-1.69-.99-.66-.27-.87-.18-1.09-.25-.04-.26-.02-.8-.02-1.07,0-.53.19-.79.42-1.21.22-.39-.14-.86-.62-.83-.34.02-.42.25-.56.52-.12.23-.26.47-.34.75-.11.39-.11,1.1-.08,1.54,0,.09,0,.15,0,.23,0,.11,0,.13-.1.14-.59.05-.42-.11-.94-.1-.36,0-.69-.03-1.01.08-.23.08-.2.03-.42-.03-.14-.04-.3-.07-.44-.08-.56-.05-1.87.13-2.51.2-.27.03-.22.03-.36-.12-.14-.14-.47-.35-.74-.34-.4.01-.38.39-.47.61-.08-.01-.28-.28-.7-.42-.17-.05-.35,0-.44.09-.24.26.03.51-.34.37-.07-.03-.1-.04-.18-.06-.26-.08-.51-.06-.61.25-.05.17,0,.23-.22.25-.04-.62.01-.59.26-1.04.19-.35-.16-.72-.55-.64-.2.04-.23.18-.32.34-.08.14-.16.28-.21.44-.13.39-.08.8-.08,1.23-.06.1-.35.18-.47.22l-1.44.56c-.37.14-.76.26-.34.63.11.09.29.2.37.31.06.07.01.14,0,.25-.07.38-.06.24-.91.28-.27.01-.55.01-.81.04-.27.02-.54.04-.8.05-.26.02-.52.04-.79.06-1.26.09-2.47.32-3.64.66-.73.21-1.15.33-1.62.93-.26.32-.36.77-.45,1.25-.09.48-.18.94-.27,1.43-.09.49-.14,1-.22,1.5-.07.43.03.38-.22.63-.15.15-.27.27-.4.45-.38.52-.69,1.12-.78,1.78-.04.26-.15.18-.47.37-.11.07-.16.1-.17.27l-.04,1.25c0,.59-.06,1.06.2,1.52.59,1.03,1.6.7,2.56.85.07.13.13.29.2.44.2.41.47.81.78,1.12.36.37.86.7,1.37.86.12.04.11,0,.2.08-.11.03-.77.03-.93.03-.63,0-1.23.03-1.85.05-.15,0-.75.02-.83.1.23.07,2.48.13,2.87.13.98,0,1.96.05,2.94.05.64,0,1.31,0,1.96.02,1.31.04,2.64,0,3.96.02,1.3.03,2.64.01,3.96.01,2.65,0,5.28,0,7.92-.03.66,0,1.32-.02,1.98-.02.65,0,1.3-.03,1.96-.03l1.96-.04c.31-.02.65-.03.96-.04.32,0,.63-.05.93-.05,0-.06-.05-.04-.08-.1.19-.11.28-.26.35-.51.2-.69.21-1.69.11-2.38ZM29.45,15.11l.02.03s0,.02,0,.02c-.02-.11.03.06,0,0,0,0,0,0,0,.01.01.06,0,.43-.03.51-.17.37-.63.14-.86.07-.37-.11-2.11-.64-2.26-.75.12-.02,2.11.44,2.53.52.46.09.54-.36.59-.42ZM28.79,10.51c.01.18.05.39-.12.43-.09.02-.15-.03-.21-.06-1.21-.73-1.16-.55-1.17-1.93,0-.33-.11-.89.11-.97.13-.04.29.12.37.18.11.08.21.14.32.23.2.16.53.35.62.51.08.17.07.82.07,1.07,0,.18,0,.35.01.53ZM28.98,13.49l.03,1.49c0,.15.01.32-.15.35-.09.02-.29-.09-.37-.12-.14-.05-.22-.12-.28-.23-.12-.18-.11-.65-.11-.9,0-.34-.02-.67-.02-1,0-.41-.09-.79.14-.84.06-.01.58.3.63.35.16.16.13.61.13.89ZM27.87,4.93c.29.22.88.64.99.99.03.09.14.43.09.5-.15-.22-.18-.31-.39-.58-.46-.58-1.33-1.25-1.97-1.6-.11-.06-.35-.17-.41-.25.2.02.75.33.91.42.28.16.53.34.77.52ZM25.39,3.61c.18-.3.98.08,1.07.23-.21-.02-.69-.35-.68.17l.03,1.43c0,.5-.06.4.3.69.18.15.36.29.54.44.58.48,1.67,1.35,2.15,1.78-.09,0-.65-.44-.75-.52-.33-.25-2.12-1.56-2.21-1.57l.2,8.33c0,.43.02.36-.19.36-.08,0-.18,0-.26-.01l-.03-.16c-.03-1.07-.03-.76.21-.84.16-.05.13-.23.13-.37,0-.89-.08-2.05-.08-2.96,0-.49,0-1.01-.03-1.49-.03-.49,0-.99-.04-1.47-.03-.5-.01-1-.03-1.51,0-.13-.06-.2-.13-.25-.11-.09-.2-.03-.21-.17-.02-.16-.01-.55-.01-.72,0-.29-.07-1.21.03-1.38ZM24.93,14.6l.02-.84c.07-.03.12,0,.19.04.07.33-.06.82.11,1.1.13.22.29.57.29.89,0,.15,0,.42-.1.53-.08,0-.23-.06-.29-.11,0-.11.08-.24.09-.41.04-.59-.33-.73-.32-1.21ZM24.75,15.49c-.09-.22-.2-.33-.23-.45-.07-.29-.11-.93-.08-1.25.07-.04.1-.07.2-.04.07.46.01.93.2,1.31.09.18.21.27.27.5.05.19.07.47-.03.62-.06.01-.22-.05-.28-.09.02-.26.05-.36-.05-.6ZM24.28,1.19c.07-.2.17-.35.26-.53.14-.27.16-.4.39-.38.2.02.41.22.28.43-.1.17-.18.34-.27.51-.23.42-.16.88-.16,1.41,0,.37.09,2.97.02,3.09-.07-.02-.05-.01-.06-.11l-.08-2.17c0-.4-.04-.8-.04-1.19,0-.46-.05-.49.09-.94.01-.04.03-.06,0-.09-.17.35-.17.56-.17,1.02,0,.38-.02.78-.02,1.15,0,.26.01,2.25-.03,2.31-.05.06-.18.05-.26.05-.03-.15-.05-2.92-.05-3.13,0-.55-.06-.92.12-1.42ZM24.16,6.81c.08-.1.02-.18.02-.3,0-.12,0-.28,0-.4,0-.1,0-.12.06-.15.16-.05.89,0,1.04.04.23.05.21.08.21.31,0,.36.02.69.02,1.04,0,.35.03.69.03,1.04,0,.53.16,5.15.12,5.29-.12-.02-.22-.07-.39-.09-.35-.04-.91-.06-1.23.05-.18.06-.17.18-.18-.95,0-.65-.04-1.25-.04-1.89,0-.63-.04-1.29-.05-1.91l-.02-.75c.01-.13.2-.09.33-.38.12-.26.14-.2.13-.37-.17-.14-.09-.12-.17-.24-.06-.09-.16-.12-.19-.22.12-.08.21,0,.31-.12ZM15.58,12.29c-.15.16-.27.29-.41.48-.46,0-1.13-.11-1.68-.08-.96.07-2.8.1-3.15,1.28-.1.33.18.53.21.61h-.03s-.01,0-.02,0c0,0-.01,0-.02,0,0,0-.05,0-.07,0h-1.1c0-.17.45-.82.55-.97.31-.45.67-.84,1.05-1.23l.39-.36c1.38-1.11,2.5-1.6,4.33-1.71.28-.02,1.22.02,1.41.1-.24.02-.48,0-.73,0-.95.04-1.99.27-2.79.76-.11.07-.77.46-.83.58.08-.01.32-.15.42-.2.51-.23.73-.33,1.31-.51,1.74-.53,3.4-.68,5.03.18.15.08.66.38.72.48-.11-.03-.21-.1-.32-.16-.83-.42-1.7-.53-2.6-.31-.67.16-1.25.56-1.69,1.03ZM16.12,14.41c-.57.3-1.08.05-1.69.02-.73-.04-2.09,0-2.94,0-.29,0-.71.06-.86-.12-.19-.22.03-.55.16-.68.57-.57,1.51-.61,2.24-.7.58-.07,1.31,0,1.89.03.31.02,1.45.17,1.64.31.46.35-.07.94-.44,1.14ZM15.13,5.93c.01-.06.03-.12.04-.17.03-.11,0-.08.09-.1l1.53-.12c.44-.03,2.8-.24,3.12-.23-.01.23-.31,1.62-.39,1.77-.39.04-.81.07-1.19.09-.83.04-.99.15-1.76.02-.21-.04-1.6-.2-1.67-.25-.03-.07.19-.83.24-1ZM14.79,6.35c-.03.12-.09.51-.18.57l-2.44-.22s0-.27.13-.32c.12-.04.25-.06.38-.09.32-.09,2.16-.54,2.24-.53.01.1-.1.48-.13.59ZM19.47,7.63c.46-.03.33.1.46-.45l.35-1.5c.04.06-.35,2.05-.4,2.21-.07.01-1.22-.15-1.32-.23.25-.05.64-.02.91-.03ZM20.19,8.2c.17,0,.2.04.2.22v.81c0,.15-.03.21-.18.21-.14,0-.3.02-.3-.15v-.94c0-.16.13-.16.28-.16ZM17.49,12.89c.43-.9,1.52-1.44,2.49-1,.26.11.76.45.83.69-.1-.05-.12-.11-.19-.18-1.01-.93-2.53-.26-3.18.86-.05.09-.06.12-.13.2,0-.17.12-.44.19-.57ZM20.51,7.72c-.07.1-.08.23-.14.31h-.19c-.03-.55.67-.81,1.01-.98.44-.21.99-.56,1.46-.52l.06.22c-.58.02-.82.19-1.35.46-.31.15-.69.29-.85.51ZM20.8,5.92c.03-.19.04-.4.06-.59.05-.68.24-.56.62-.37l.84.43c.26.13.35.13.33.29-.08,0-.98-.5-1.17-.6-.42-.23-.46-.23-.51.09l-.11.82c-.02.19-.1.98-.16,1.08-.04-.08.07-.99.09-1.16ZM22.17,8.41c.15.06.83.32.92.33v-.65c.15,0,.1.2.1.35,0,.08.02.4-.03.43l-1.64-.65c-.06-.03-.27-.09-.28-.15l.92.33ZM22.79,12.83c0-.09.02-.37.06-.44.04.08.04.56.07.71.05.03.16.09.23.06.08-.06-.03-.41.1-.42.03.35.1.72-.35.49-.15-.08-.11-.22-.1-.41ZM23.3,13.79s.06-.06.08-.09c.13-.17.06-.63.06-.89,0-.45-.01-.83-.01-1.28,0-1.09-.04-2.17-.04-3.28,0-.09,0-.08.06-.1t.04.15c0,.06,0,.13,0,.19l.02,4.17c0,.4.11,1.12-.3,1.21.04-.05.04-.03.09-.08ZM23.49,7.97c-.32,0-.56-.17-.56-.48,0-.59,1.03-.6,1.03,0,0,.29-.25.48-.47.48ZM23.56,3.52c.21,0,.34-.01.41.15.06.12.03,1.86.03,2.14,0,1.02.08.94-.7.95-.2,0-.36,0-.43-.14-.06-.12-.03-1.88-.03-2.15,0-.4-.07-.84.18-.92.12-.04.39-.02.53-.02ZM21.32,3.53s.21-.08.25-.1c.57-.21.49-.2,1.14-.2.16,0,.48-.05.55.1-.09,0-.19,0-.27.03-.09.03-.12.07-.19.09-.1.02-.42,0-.55.02-.18.01-.29.06-.45.12-.1.04-.33.14-.42.15-.05-.05-.11-.16-.05-.21ZM17.22,3.09c.06-.08.14-.09.25-.07.15.04.41.16.46.26-.12.03-.09,0-.18,0-.05,0-.11.02-.17.02-.18,0-.18-.07-.34-.05-.05.08-.03.08-.09.1-.03-.07.03-.21.07-.27ZM16.12,3.15c.19.04.34.14.45.25-.03.03-.25.06-.32.06-.16,0-.19-.08-.34-.08-.05.07-.02.1-.1.12-.05-.09.05-.41.31-.35ZM14.95,3.48c.07-.02.23.02.28.07-.03.07-.2.1-.23.1-.07,0-.04-.04-.12.01-.08.06.03.04-.1.06.02-.12.07-.22.17-.25ZM13.8,3.09c.04-.14.11-.27.18-.39.03-.05.06-.11.1-.18.13-.22.48-.02.35.22-.29.51-.28.53-.28,1.11,0,.13.02.16-.1.17-.08-.13,0-.72-.04-.83-.12.31.08,1.04-.24.92-.06-.19-.02-.82.04-1.02ZM14.69,4.11c.78-.33.58-.26,1.42-.33.54-.05,1.08-.06,1.63-.11.81-.07,1.69-.1,2.44-.18.79-.08.79.05,1,.69.1.3.09.19.45.42.09.06.18.11.28.17l.54.33c.1.06.21.08.2.21-.08,0-.8-.47-.97-.57-.26-.15-.79-.58-.97-.11-.05.13-.06.51-.08.68l-.2,1.71c0,.1.02.26-.08.28-.03-.13.21-1.98.24-2.38.02-.23,0-.35.16-.5l.12-.1c-.04-.06-.14-.09-.22-.12-.73-.33-.88-.46-1.83-.33-.38.05-.82.08-1.21.11l-2.4.22c-.53.05-.55.09-1.04.26-.16.06-1.81.66-1.94.67.04-.06,2.39-1,2.46-1.03ZM12.25,5.65c.08-.14.19-.18.36-.24.45-.15,2.4-.82,2.73-.84.76-.04,3.95-.35,4.41-.32-.11.05-.91.11-1.06.13-.61.09-1.52.15-2.15.21-1.16.11-1.01.03-2.03.33-.3.09-.6.18-.9.27-1.63.47-1.17.29-1.46.9-.03-.06.06-.37.1-.45ZM13.94,7.21c.73.05,2.54.31,3.27.45l1.56.31c.15.03.36.07.48.12-.17.03-.49-.05-.67-.06-.69-.06-1.28-.13-2-.16-.92-.05-1.88-.06-2.82-.04.02.02,0,0,.05.04l.83.15c.3.06.59.12.89.18.26.05,1.56.34,1.68.42-.07.02-1.37-.19-1.56-.22-.5-.09-1.11-.15-1.63-.19-.44-.03-3.02-.22-3.43-.14-.02-.2.07-.22-.02-.59-.06-.26-.2-.36-.2-.44.67-.06,2.78.12,3.56.18ZM2.45,14.41c0-.12.02-.23.03-.34l.02-.27s0-.01,0-.02c0,0,0,0,0-.02,0,0,0-.01,0-.02.12.26-.18.74.63.68l3.71-.23c1.27-.07,1.47.05,1.65-1,.18-1.07.41-2.32.54-3.4.05-.39.09-.77.15-1.16.06-.35.2-.93-.18-.98-.27-.04-2.02.17-2.39.23-.76.13-1.47.22-2.26.38-.18.04-.37.06-.52.14-.19.09-.24.16-.37.25,0-.18.5-.58.83-.69.84-.28,1.7-.38,2.54-.52.77-.13,2.07-.21,2.86-.19.23,0,.36.18.39.38.04.39-.31,2.92-.4,3.39-.2.96-.3,1.53-.55,2.51-.12.45-.17.8-.61.92-.16.04-1.15.07-1.42.09-.49.04-.98.04-1.46.07l-2.89.15c-.43.02-.34.06-.31-.36ZM4.14,9.83c.05-.23.23-1.09.32-1.23.01.16-.39,2.46-.43,2.69-.05.29-.39,2.67-.41,2.71-.11-.65.35-3.42.52-4.17ZM5.48,10.95c.07-.39.41-2.5.57-2.73.08.19-.66,5.26-.78,5.78-.13-.22.14-2.67.21-3.05ZM7.1,12.3c.03-.45.1-1.07.19-1.5.17-.89.26-1.57.5-2.46l.07-.25s.02-.03.02-.03c0,0,0,0,.01-.01,0,0,0-.01.01-.02,0,.69-.71,5.57-.87,5.88-.06-.28.05-1.29.07-1.61ZM1.5,14.12c.07-.11.21-.09.35-.08,0,.13-.06.48-.11.57-.11-.14-.02-.16-.21-.32-.06-.05-.09-.08-.04-.17ZM1.32,14.69c.16,0,.18-.01.34.01l-.05.04c-.07.04-.28.13-.35.12,0-.06.03-.13.06-.18ZM1.88,14.63c.04-.15.08-.33.11-.49.01-.1.02-.19-.04-.25-.03-.03-.06-.03-.11-.04-.02,0-.03,0-.06,0-.04,0-.02,0-.05-.01.04-.11.13-.19.2-.27.05-.07.15-.19.23-.21.03.05-.14,1.63-.16,1.65-.02.03-.33.07-.39.07-.12.01-.31.06-.41.04-.01-.24.55-.02.68-.49ZM.68,15.82c.78-.2,1.29-.25,2.12-.31.26-.02.51-.04.77-.06.25-.02.51-.03.76-.05.5-.05,1.02-.05,1.53-.09,1.03-.08,2.11-.04,3.15-.1.87-.05,2.27-.07,3.17-.07,1.07,0,1.73.04,2.79.1.26.02,1.85.18,1.98.25.02.06-.08.39-.11.47-.14,0-.41-.06-.56-.09-.18-.03-.36-.05-.55-.08-.76-.11-2.07-.19-2.86-.17-.18,0-.41.02-.6.02.13.05.84.06,1.05.09.35.04.67.07,1.01.12.3.04,1.66.27,1.87.37l-1.57-.18c-1.18-.17-3.42-.22-4.65-.22h-1.77c-1.08,0-3.02.05-4.08.12-1.06.07-2.23.17-3.26.4-.07.02-.14.03-.21.04-.14.03-.14.05-.18,0-.04-.04-.02-.1-.02-.18,0-.38-.03-.33.21-.4ZM11.24,17.72c.4-.05.96.07.91-.82-.02-.34-.14-.6-.54-.62-.64-.03-1.58-.07-2.21-.07-.22,0-.98.03-1.11,0l.14-.04c.68-.05,3.05-.16,3.43-.02.29.11.48.37.47.76,0,1.07-.56.96-1.5,1.01-.38.02-2.1,0-2.37-.1l.12-.02s.1,0,.15,0c.68,0,1.9,0,2.5-.08ZM10.67,16.83c0-.16.17-.3.33-.3.5,0,.97-.1.97.38,0,.56,0,.63-.65.63-.7,0-.65-.09-.65-.71ZM.39,17.19c0-.16.01-.44.08-.55.08-.14.25-.15.42-.18.24-.04.9-.12,1.1-.02-.31,0-.7.06-1,.11-.5.09-.46.1-.48.62-.03.72.14.61.48.62.35.01.7.04,1.06.04-.03.02,0,.01-.07.03h-.22c-1.29.08-1.37.15-1.37-.67ZM1.78,17.43c0,.32-.18.28-.4.28-.11,0-.19.02-.29-.02-.18-.07-.13-.31-.13-.57,0-.15.09-.24.25-.24.55,0,.59-.04.57.54ZM5.6,19.67c-.05.16-.27.21-.27-.02s.32-.14.27.02ZM6.21,20.31c-.25.11-.33-.31-.12-.38.24-.08.32.29.12.38ZM7.27,20.26c-.19.13-.51-.18-.29-.34.2-.14.49.2.29.34ZM11.66,21.95l-3.89.02c.09-.06.22-.1.35-.15.12-.05.24-.11.34-.17.53-.32.71-.52,1.1-.95.38-.42.1-.38.64-.38.66,0,1.33-.04,2-.04.66,0,1.33-.06,1.98-.04.09.17.19.33.29.49.2.33.41.59.69.85.16.15.39.26.41.36-1.31,0-2.59.01-3.9.01ZM16.16,18.95c-.15.17-.39.27-.71.26-.63-.03-1.29-.03-1.92-.03-1.29,0-2.58-.05-3.87-.05s-2.57-.05-3.85-.05c-.65,0-1.29-.03-1.94-.03-.65,0-1.27,0-1.91-.02.16-.08,3.23-.05,3.74-.09l1.88-.04c.63,0,1.24-.03,1.87-.03,1.82,0,3.78-.09,5.62-.09.88,0,1.09-.43,1.36-.54.03.22-.17.59-.27.71ZM16.46,16.8c-.02-.19-.06-.37-.11-.55.34.06.42.06.38.24-.01.05-.02.08-.04.14l-.19.76c-.05-.08-.03-.46-.04-.59ZM16.6,18.15c0-.96.34-1.9,1.12-2.39.3-.18.48-.23.87-.28.31-.04.69.1.92.23.75.42,1.22,1.38,1.22,2.27,0,2.76-2.7,3.59-3.78,1.54-.21-.41-.35-.88-.35-1.37ZM20.82,19.69c-.19.59-.61,1.12-1.22,1.37-.45.19-.97.21-1.46.06-.32-.1-.93-.45-1.03-.7.14.05.47.4,1.1.5,1.11.17,2.13-.41,2.51-1.37.1-.26.15-.57.17-.6.09.13-.02.59-.07.74ZM22.2,19.42c0,.1.03.28-.09.26-.09-.02-.06-.05-.05-.25.03-.33.07-.77.04-1.11-.02.04-.07.63-.09.76-.03.23-.1.49-.16.69-.09.27-.37.96-.55,1.14-.02-.05.12-.36.16-.45.3-.86.34-1.25.34-2.14,0-.73-.32-1.93-.73-2.53-.53-.79-1.03-1.09-1.98-1.28.04-.16.32-.37.49-.45.14-.07.21,0,.33.05.54.25.91.62,1.25,1.07.42.54.7,1.28.83,1.98.03.15.08.75.11.8,0-1.14-.1-2.52-.44-3.5-.2-.57-.34-.82-.7-1.26-.11-.14-.39-.34-.55-.43-1.02-.54-1.76-.06-2.43.75-.3.36-.62.97-.81,1.43-.03.08-.04.16-.12.19,0,0-1.11-.16-1.24-.18-.23-.04-1.12-.13-1.25-.22h.2c.68.01.59.03,1.23,0,.22,0,.6.03.89,0,.09-.13.16-.3.24-.44.08-.14.16-.27.25-.41.21-.32.62-.85.91-1.09.14-.11.2-.18.37-.29.66-.42,1.4-.39,2.02.1,1.53,1.19,1.62,4.93,1.51,6.79ZM22.01,14.52c-.02-.06-.06-.22-.06-.28.11,0,2.02.64,2.26.73-.12.04-1.61-.27-1.93-.32-.12-.02-.22,0-.26-.12ZM23.84,21.32c-.26-.04-.47-.36-.43-.46.07.06.11.14.19.21.39.31.75-.17.75-.17,0,0,0,0,.02-.01-.05.22-.26.47-.53.43ZM23.74,18.99c.08-.02,1.8.18,1.88.22l.04.07c.02.06.02.16,0,.22-.12.02-1.68-.11-1.86-.15-.04-.1-.07-.25-.06-.37ZM25.64,21.35c-.22-.06-.41-.37-.33-.5.01.13.35.7.77.08.04.18-.22.48-.44.42ZM26.08,21.97c-.01-.06.03-.07.07-.12.09-.09.18-.28.23-.41.11-.26.15-.59.21-.62.04-.02,1.45-.06,1.61-.06.25,1.03.48,1.1.51,1.24l-2.63-.04ZM28.66,19.27c-.18.44-.43.75-1,.71-.25-.02-2.05-.14-2.12-.2.07-.16.07.09.34-.21.53-.59.64-1.5.39-2.25-.05-.14-.11-.27-.18-.39-.05-.09-.05-.1-.17-.13-.07-.02-.16-.05-.22-.05.12.16.25.3.34.53.18.47.21.98.07,1.47-.03.1-.19.52-.29.54-.12-.23.1-.19-.4-.26-.1-.01-.48-.03-.55-.09.03-.08.07-.14.1-.22.23-.55.23-1.22-.1-1.73-.11-.17-.12-.21-.2-.19.04.5.15,1.52.11,1.99,0,.09,0,.13-.08.15-.09-.15.05-.78-.04-.97-.07-.04-1.74-.3-1.79-.28-.04.03-.17.86-.19,1.03-.01.1-.01.1.01.12.12.07.75.02.9.09.04.07.08.36.07.45-.08.03-.33.17-.38.14.08-.07.25-.14.35-.19l-.07-.32c-.23-.04-.9.03-1.06-.03-.02-.13.05-.62.06-.77.03-.26.07-.51.05-.77-.02-.19-.08-1.53-.05-1.62.38-.01.32-.02.32.21l-.02.87c0,.69-.1.55.43.64l1.31.22c.05-.12-.02-1.37-.02-1.62.06,0,.08.02.13.03,0,0-.04.05-.04.06-.03.06-.02.03,0,.15.19.08.97.26,1.23.32.41.11.8.2,1.22.31.21.06.42.1.63.16.24.06.37.08.55.21.5.38.61,1.29.38,1.86ZM30.13,21.79c-.16,0-.17-.14-.25-.42-.13-.47-.25-1.2-.25-1.68,0-.1.19-.13.21.04.01.11.01.24.02.34.01.23.05.44.08.66.03.2.08.42.14.61.12.39.24.45.06.45ZM30.78,17.58c-.02.23-.03.44-.03.66,0,.23,0,.45,0,.68,0,.24.04.44-.23.44h-1.6c-.1,0-.08-.04-.05-.13.22-.78-.04-1.22-.02-1.35l.44-.04c.06.1.04.3.06.42l.07.39s0,.01,0,.01c.07-.11.03-.69.02-.83,1.1-.06.84-.14.91.39.02.15.02.32.08.44.05-.18.02-.53.02-.72,0-.42.04-.55.04-.82-.08.1-.14.37-.15.49h-.85s-.01.01-.02-.04c0-.03,0-.03,0-.06l.02-.33c-.06.03-.04,0-.09.21-.02.08-.04.16-.06.24l-.36.02c-.33,0-.23-.02-.33-.15-.09-.12-.07-.1-.08-.26-.09.03.02.02-.07.07-.02,0-.27-.19-.29-.21.06-.1.13-.07.27-.07.38,0,2.18-.11,2.28-.06.12.06.06.46.05.6ZM31.64,21.83c-.27,0-.47-.77-.51-1.03-.15-.87-.15-1.06-.15-1.9,0-.42.1-1.13.28-1.43.16-.27.36-.04.46.15.07.14.19.46.19.65-.08-.09-.1-.34-.24-.48-.18-.17-.27.08-.32.23-.23.69-.14,2.07.02,2.77.03.14.23.96.48.68.06-.06.12-.18.13-.28.03.22-.16.63-.33.63ZM31.51,19.18c-.09-.37-.16-.22-.16-.35,0-.21.06-.54.21-.63.13.04.17.17.22.3.18.5.19,1.16.19,1.7,0,.74-.27,1.25-.49.36-.06-.23-.02-.18.03-.28.11-.2.05-.9,0-1.11ZM32.1,18.7c-.03-.18-.04-.33-.08-.5-.02-.11-.11-.37-.11-.46l.38-.02c.16,0,0,.2-.07.48-.03.12-.07.42-.12.49ZM32.5,21.13c-.18-.7-.2-1.21-.2-1.91,0-.37.08-1.05.22-1.31.25-.47.5.25.56.47,0,.02.02.06.02.08,0,.06,0,.04-.02.07-.03-.17-.12-.39-.27-.43-.36.11-.3,1.37-.3,1.78,0,.29.06.68.12.95.05.23.13.67.35.7.08-.01.11-.14.17-.18,0,.32-.37.91-.65-.22ZM32.94,21.08c-.14-.05-.26-.41-.25-.59.06-.05.08-.04.1-.13.06-.21.02-.76-.03-.99,0-.03-.03-.13-.05-.16-.05-.09-.07-.02-.11-.11.01-.18.11-.84.32-.45.26.46.36,2.42.02,2.42Z"/>
    <path class="cls-1" d="M14.38,13.13c-.93-.07-3.24-.05-3.61.9-.09.24.22.19.4.19.5,0,3.07.03,3.26-.01.05-.09.14-.53.36-.94.09-.17.02-.11-.41-.14ZM14.01,14.09s-.03,0-.07,0h-1.25c-.34,0-1.14.04-1.42-.02.05-.03,1.25-.11,1.4-.12.44-.02.94.05,1.4.11-.04.03.04,0-.06.03ZM14.55,13.47l-.15.4c-.06.23-.03.17-.09.2v-.49s-1.06.24-1.06.24l1.04-.44c-.11-.08-.93,0-1.12.02-.43.03-.27,0-.43.2-.18.23-.51.24-.77.05-.13-.1-.17-.06-.35,0-.39.12-.56.31-.66.32.09-.26.69-.5,1.06-.57,1.03-.2,1.59-.18,2.58-.12.04.06,0,.1-.04.2Z"/>
    <path class="cls-1" d="M28.68,9.87c-.04-.98.14-.86-.65-1.4-.18-.12-.49-.4-.64-.39-.06.13-.03.31-.02.49.01.35,0,1.24.08,1.45.1.26.55.48.87.67.07.04.26.2.34.16.09-.04.04-.37.04-.47-.01-.17,0-.33,0-.5ZM28.15,8.83s-.05-.03-.08-.05c-.13-.07-.39-.29-.49-.31l-.03.56c-.06-.11-.07-.38-.07-.52,0-.36.51.13.6.2l.17.16c-.06,0-.04,0-.1-.03Z"/>
    <path class="cls-1" d="M28.89,13.42c-.05-.79.12-.64-.47-.98-.11-.06-.26-.19-.26.03,0,.62.04,1.21.04,1.81,0,.24-.02.53.11.69.08.1.11.11.24.17.11.05.21.11.33.1.06-.13.05-.19.04-.38-.03-.49,0-.99-.03-1.43ZM28.36,12.67c-.05.13.03.49-.04.66-.04-.05-.05-.22-.06-.3-.01-.14-.08-.57.19-.45.09.04.16.13.17.14-.11-.01-.19-.11-.27-.06Z"/>
    <path class="cls-1" d="M17.59,18.33c.17,1.17,1.43,1.84,2.24.9.04-.05.25-.28.19-.36-.13.22-.28.39-.53.52-.76.4-1.6-.35-1.59-1.44,0-1.29,1.16-1.99,1.93-1.16.07.08.21.21.23.33.02-.06-.03-.13-.06-.19-.04-.07-.08-.12-.12-.18,0,0,.01,0,.02,0,0,0,.16,0,.11-.23-.03-.12-.07-.19-.2-.2-.11.11-.06.16-.03.3-.11-.05-.2-.16-.36-.24-.9-.46-2.05.45-1.84,1.94Z"/>
    <path class="cls-1" d="M15.48,13.3c-.14-.02-.4-.11-.48.02-.07.12-.32.7-.32.85.07.04.7.12.87.12.52,0,1.04-.56.87-.76-.1-.12-.76-.2-.95-.23ZM15.38,13.66c-.18.05-.31.14-.45.18.03-.14.12-.29.18-.41l.77.13c-.08.06-.39.07-.51.1Z"/>
    <path class="cls-1" d="M11.83,16.87c0-.15-.07-.21-.22-.21-.54,0-.82-.08-.82.23,0,.6-.08.52.85.52.25,0,.2-.26.2-.54ZM11.25,17.02c-.19.14-.18.2-.26.21-.02-.07-.02-.24-.01-.31.01-.08.02-.06.09-.07.14-.02.35-.02.49,0-.08.06-.21.09-.32.17Z"/>
    <path class="cls-1" d="M27.64,19.51c-.08-.06-1.29-.18-1.49-.19-.06.12-.23.28-.26.36.07.04,1.2.11,1.37.11.12,0,.34-.18.38-.28Z"/>
    <path class="cls-1" d="M27.96,19.45c.29-.47.33-1.1.17-1.61-.1-.33-.19-.49-.45-.52.03.05.01.04.05.09.28.38.4.82.32,1.31-.06.4-.22.77-.53,1.02-.05.04-.07.06-.1.1.2.06.23,0,.33-.1.1-.1.14-.15.21-.28Z"/>
    <path class="cls-1" d="M26.46,18.23l-.02.2c.17.05,1.13.16,1.45.2.08.01.12.02.11-.1,0-.09-.03-.08-.14-.09-.3-.04-1.25-.22-1.4-.21Z"/>
    <path class="cls-1" d="M27.68,17.48c-.02-.25-.49-.3-.68-.35-.16-.04-.72-.2-.84-.19.17.27-.06.21.67.36.26.05.6.15.85.18Z"/>
    <path class="cls-1" d="M1.08,17.15v.41c.13.04.29.02.43.02.19,0,.15-.06.15-.39,0-.23-.12-.17-.28-.17s-.3-.06-.3.13ZM1.59,17.11v.25c-.06-.03-.03-.02-.08-.07-.07-.08-.12-.11-.21-.17.09-.03.19-.03.29,0Z"/>
    <path class="cls-1" d="M17.1,18.14c-.37.08-.25.58.16.51.37-.07.23-.59-.16-.51Z"/>
    <path class="cls-1" d="M23.87,5.87c0-.21.04-.77-.03-.89,0,.34-.07.7-.09,1.04-.03.54-.37.35-.59.53.84.04.71-.03.71-.68Z"/>
    <path class="cls-1" d="M17.34,17.31c.5,0,.11-.64-.24-.4-.19.13,0,.4.24.4Z"/>
    <path class="cls-1" d="M17.43,19.52c-.02.32.54.23.54-.05,0-.33-.53-.24-.54.05Z"/>
    <path class="cls-1" d="M30.46,18.86c-.05.06-.13.14-.2.18-.12.08-.27.13-.42.16l-.14.03s-.01,0-.02,0c.12.02.66.04.78,0,.11-.03.15-.11.16-.24,0-.11.03-.3-.02-.38-.05.06-.09.17-.14.24Z"/>
    <path class="cls-1" d="M24.95,16.63c0,.07.08.12.13.2.08.13.02.11.2.14.13.03.43.11.55.11-.06-.14-.17-.28-.34-.32-.13-.03-.43-.12-.54-.12Z"/>
    <path class="cls-1" d="M18.68,19.8c-.3.06-.3.55.02.48.25-.06.27-.53-.02-.48Z"/>
    <path class="cls-1" d="M25.45,18.06l-.04.23c.12.04.2.04.33.06.09.01.21.05.3.03h.05c.06-.28-.04-.23-.24-.26-.08-.01-.36-.08-.41-.06Z"/>
    <path class="cls-1" d="M18.11,16.43c.24-.07-.01-.52-.29-.42-.25.08.03.5.29.42Z"/>
    <path class="cls-1" d="M19.5,19.85c-.02.36.33.23.33-.09,0-.34-.31-.23-.33.09Z"/>
    <path class="cls-1" d="M27.96,19.57s-.17.2-.18.25c.13.02.27.04.37-.02.06-.04.18-.14.19-.23-.1-.03-.32-.06-.38,0Z"/>
    <path class="cls-1" d="M19.1,16.19c.15-.1-.08-.49-.24-.38-.05.03-.06.04-.05.13,0,.12.15.34.29.25Z"/>
    <path class="cls-1" d="M24.57,9.58c-.23.08-.12.39.11.31.23-.08.11-.39-.11-.31Z"/>
    <path class="cls-1" d="M24.63,12.71c-.21.08-.11.38.15.3.2-.06.09-.39-.15-.3Z"/>
    <path class="cls-1" d="M25.07,7.26c-.23,0-.17.33.06.33h.02c.21,0,.15-.33-.09-.33Z"/>
    <path class="cls-1" d="M25.11,10.4c-.2.03-.13.33.13.33.21,0,.13-.37-.13-.33Z"/>
    <path class="cls-1" d="M24.49,7.27c-.19.1-.08.36.15.29.23-.07.08-.41-.15-.29Z"/>
    <path class="cls-1" d="M24.79,9.21c-.21.12,0,.38.2.28.19-.09,0-.4-.2-.28Z"/>
    <path class="cls-1" d="M24.85,12.34c-.19.1-.02.37.2.29.19-.07.03-.41-.2-.29Z"/>
    <path class="cls-1" d="M24.85,10.76c-.23.08-.07.38.15.31.21-.06.05-.38-.15-.31Z"/>
    <path class="cls-1" d="M24.5,7.77c-.04-.19-.36-.12-.36.1s.4.1.36-.1Z"/>
    <path class="cls-1" d="M24.44,11.08c.24-.08.1-.42-.13-.28-.19.12-.11.36.13.28Z"/>
    <path class="cls-1" d="M24.61,6.77c.22-.06.13-.39-.12-.29-.19.07-.15.37.12.29Z"/>
    <path class="cls-1" d="M24.43,10.3c.21-.09.11-.4-.12-.29-.19.09-.15.4.12.29Z"/>
    <path class="cls-1" d="M24.8,8.41c-.22.06-.12.36.13.3.2-.05.11-.37-.13-.3Z"/>
    <path class="cls-1" d="M25.03,8.06c-.24.11.02.37.19.3.19-.07.02-.4-.19-.3Z"/>
    <path class="cls-1" d="M24.76,12.23c.19-.07.09-.38-.13-.3-.24.09-.11.38.13.3Z"/>
    <path class="cls-1" d="M24.85,7.16c.23,0,.17-.36-.06-.32-.2.03-.22.32.06.32Z"/>
    <path class="cls-1" d="M24.58,10.38c-.25.12-.06.38.15.28.2-.09.06-.39-.15-.28Z"/>
    <path class="cls-1" d="M24.53,8.82c-.23.13-.05.37.15.28.21-.09.06-.4-.15-.28Z"/>
    <path class="cls-1" d="M25.08,10.16c.02-.17-.24-.31-.36-.08,0,.11.03.17.14.2.11.03.2-.02.21-.12Z"/>
    <path class="cls-1" d="M25.02,11.85c.23-.06.03-.41-.17-.3-.18.1-.06.36.17.3Z"/>
    <path class="cls-1" d="M24.24,11.8c.04.09.18.09.25.05.2-.11.07-.38-.14-.27-.07.04-.16.11-.11.23Z"/>
    <path class="cls-1" d="M24.08,10c.23-.04.26-.38.04-.33-.23.05-.3.37-.04.33Z"/>
    <path class="cls-1" d="M24.58,12.4c-.07-.14-.38-.09-.32.2.19.12.42-.02.32-.2Z"/>
    <path class="cls-1" d="M24.17,12.78c-.22.07-.24.36,0,.32.26-.04.23-.4,0-.32Z"/>
    <path class="cls-1" d="M25.05,12.01c-.11.14.09.34.31.25.09-.27-.22-.38-.31-.25Z"/>
    <path class="cls-1" d="M25.03,8.85c-.12.07-.08.17-.03.23.05.05.17.1.26.05.15-.08-.05-.4-.23-.29Z"/>
    <path class="cls-1" d="M24.68,7.72c-.05.11.03.18.1.21.12.05.18-.01.24-.06.03-.31-.28-.3-.34-.15Z"/>
    <path class="cls-1" d="M25.15,6.8c.21-.02.09-.37-.12-.32-.25.05-.09.35.12.32Z"/>
    <path class="cls-1" d="M24.73,11.45c.22-.08.07-.4-.14-.29-.21.1-.08.37.14.29Z"/>
    <path class="cls-1" d="M25.13,12.76c-.2.09.02.37.2.31.2-.07,0-.4-.2-.31Z"/>
    <path class="cls-1" d="M25.12,11.18c-.18.04-.12.33.14.33.21,0,.09-.39-.14-.33Z"/>
    <path class="cls-1" d="M24.37,9.54c.23-.05.21-.37-.03-.31-.24.06-.22.36.03.31Z"/>
    <path class="cls-1" d="M24.99,9.67c-.08.16.12.34.33.23.06-.33-.28-.33-.33-.23Z"/>
    <path class="cls-1" d="M24.28,8.46s-.06.02-.1.08c-.08.13.02.28.21.2.2-.08.14-.4-.1-.28Z"/>
    <path class="cls-1" d="M24.07,10.78c.25,0,.32-.32.11-.33-.19-.01-.36.33-.11.33Z"/>
    <path class="cls-1" d="M24,9.23h.04c.15,0,.24-.14.19-.3-.3-.16-.44.3-.24.3Z"/>
    <path class="cls-1" d="M24.08,8.44c.21-.07.21-.4,0-.32-.26.09-.25.4,0,.32Z"/>
    <path class="cls-1" d="M24.33,12.11l-.07-.11c-.28-.02-.32.21-.27.28.1.13.32,0,.34-.18Z"/>
    <path class="cls-1" d="M24.53,8.04c-.24.12-.07.37.14.28.19-.08.08-.39-.14-.28Z"/>
    <path class="cls-1" d="M24.46,6.92c-.18-.08-.37,0-.32.24.19.12.38,0,.32-.24Z"/>
    <path class="cls-1" d="M24.29,11.24c-.25-.08-.34.1-.32.26.2.13.39-.02.32-.26Z"/>
    <path class="cls-1" d="M20.49,17.87c.19-.32-.2-.64-.2-.27,0,.14.03.29.2.27Z"/>
    <path class="cls-1" d="M20.39,18.7c-.14-.07-.27.26-.15.43.23.02.25-.38.15-.43Z"/>
    <path class="cls-1" d="M23.36,7.72h-.04l-.18-.02c.24.28.68.08.71-.21-.12.08-.25.23-.49.23Z"/>
    <path class="cls-1" d="M28.4,18.69c.08,0,.19.04.27.02v-.14s-.36-.07-.36-.07c-.05.14-.05.16.09.18Z"/>
    <path class="cls-1" d="M28.29,17.61v-.04s-.16-.17-.28-.18c0,.15.15.23.28.22Z"/>
  </g>
  <path class="cls-2" d="M39.83,7.06h-3.24v7.41h-2.81v-7.41h-3.26v-2.96h9.32v2.96Z"/>
  <path class="cls-2" d="M51.65,7.8c0,1.9-.61,2.99-2.27,3.44l1.91,3.23h-3.07l-1.76-2.96h-3.08v2.96h-2.81V4.1h6.41c3.5,0,4.67,1.07,4.67,3.7ZM47.78,8.69c.78,0,1.05-.37,1.05-.89s-.27-.89-1.05-.89h-4.4v1.78h4.4Z"/>
  <path class="cls-2" d="M52.77,4.1h2.81v5.45c0,1.59,1.16,2.04,2.55,2.04s2.55-.46,2.55-2.04v-5.45h2.81v5.63c0,3.7-2.28,4.98-5.36,4.98s-5.36-1.27-5.36-4.98v-5.63Z"/>
  <path class="cls-2" d="M70.18,3.86c3.35,0,5.45,1.57,5.45,4.68h-2.81c0-.81-.96-1.57-2.64-1.57-1.84,0-2.99.76-2.99,2.31s1.16,2.31,2.99,2.31c1.67,0,2.64-.76,2.64-1.57h2.81c0,3.11-2.1,4.68-5.45,4.68-3.53,0-5.81-1.57-5.81-5.42s2.28-5.42,5.81-5.42Z"/>
  <g>
    <path class="cls-2" d="M37.91,16.53l.8,3.94h.17l.8-3.94h2.9v5.52h-1.5v-3.94h-.19l-.8,3.94h-2.62l-.8-3.94h-.19v3.94h-1.5v-5.52h2.9Z"/>
    <path class="cls-2" d="M47.31,16.53l2.16,5.52h-1.69l-.36-.95h-2.46l-.36.95h-1.64l2.15-5.52h2.2ZM46.82,19.53l-.54-1.42h-.19l-.54,1.42h1.26Z"/>
    <path class="cls-2" d="M55.73,18.5c0,1.01-.32,1.59-1.21,1.83l1.02,1.72h-1.63l-.94-1.58h-1.64v1.58h-1.5v-5.52h3.41c1.86,0,2.48.57,2.48,1.97ZM53.67,18.98c.42,0,.56-.2.56-.47s-.14-.47-.56-.47h-2.34v.95h2.34Z"/>
    <path class="cls-2" d="M57.82,18.5h.96l1.54-1.97h1.79l-2.14,2.74,2.25,2.78h-1.9l-1.6-1.97h-.9v1.97h-1.5v-5.52h1.5v1.97Z"/>
    <path class="cls-2" d="M62.48,16.53h5.06v1.58h-3.56v.79h3.38v.79h-3.38v.79h3.65v1.58h-5.15v-5.52Z"/>
    <path class="cls-2" d="M72.9,18.11h-1.73v3.94h-1.5v-3.94h-1.74v-1.58h4.96v1.58Z"/>
    <path class="cls-2" d="M74.79,22.05h-1.5v-5.52h1.5v5.52Z"/>
    <path class="cls-2" d="M78.23,16.53l1.22,3.94h.18v-3.94h1.5v5.52h-2.81l-1.21-3.94h-.19v3.94h-1.5v-5.52h2.81Z"/>
    <path class="cls-2" d="M84.7,16.4c1.78,0,2.9.84,2.9,2.33h-1.5c0-.28-.51-.68-1.4-.68-.98,0-1.59.4-1.59,1.23s.62,1.23,1.59,1.23c.73,0,1.2-.27,1.35-.6h-1.35v-.87h2.9v3h-.75l-.3-1c-.35.75-.94,1.13-1.95,1.13-1.87,0-3-.84-3-2.89s1.21-2.89,3.09-2.89Z"/>
  </g>
  <path class="cls-2" d="M80.56,8.84l2.43-3.42-1.86,2.38h-1.81v-3.7h-2.81v10.37h2.81v-3.7h1.69l2.27,2.8-2.73-3.84c-.19-.26-.19-.62,0-.88Z"/>
  <path class="cls-1" d="M83.71,14.15c.05.07.13.12.2.17l-.62-.76.42.59Z"/>
  <path class="cls-1" d="M83.71,4.42l-.71,1.01.93-1.19c-.08.05-.16.11-.22.19Z"/>
  <path class="cls-1" d="M83.73,9.47c-.08-.11-.08-.26,0-.37l3.55-5h-3.27c-.15,0-.28.05-.4.13l-.93,1.19-2.43,3.42c-.19.26-.19.62,0,.88l2.73,3.84.62.76c.12.08.26.14.42.14h3.27l-.23-.29-3.32-4.71Z"/>
</svg>