<?xml version="1.0" encoding="utf-8"?>
<!-- Generator: Adobe Illustrator 19.1.0, SVG Export Plug-In . SVG Version: 6.00 Build 0)  -->
<svg version="1.1" id="Layer_1" xmlns="http://www.w3.org/2000/svg" xmlns:xlink="http://www.w3.org/1999/xlink" x="0px" y="0px"
	 width="1935.5px" height="268.3px" viewBox="0 0 1935.5 268.3" style="enable-background:new 0 0 1935.5 268.3;"
	 xml:space="preserve">
<style type="text/css">
	.st0{fill:#ED1C2E;}
	.st1{fill-rule:evenodd;clip-rule:evenodd;fill:#ED1C2E;}
	.st2{fill:#007CC3;}
</style>
<g>
	<path class="st0" d="M109.5,28.3l16.1,73.6c0.4,0.2,0.8,0.3,1.2,0.2c0.5-0.1,0.9-0.2,1.2-0.6l-2.7-76.1c-2.7-2.3-5.3-3-8.7-2.3
		C113.3,23.8,111.2,25.3,109.5,28.3L109.5,28.3z"/>
	<path class="st0" d="M134.5,1.3h16l0.7,1.1c7.4-1.1,19.9,0.6,22,4.8c1.5,3.1,1.9,8.5,1.9,8.5c-8,0.7-16,0.4-23.9,0.4l-0.7-0.9
		h-10.8l-0.7,0.9c-26.9-0.1-46.7,8.9-59.8,17.5c-20,12.9-31,42.3-32.9,69.4c-1.8,25.1,0.4,50.5-9.1,69.1
		c-6.5,12.7-23,25.5-26.5,19.1c-1.1-2.1,0.5-6,0.5-6c8.6-5.3,14.4-11.5,18.1-20.1c9.3-21.4,5.3-49,8.8-76.8
		c2.9-23.5,12.7-46,35-61.3c11.8-8.1,25.6-14.5,47-17.2l0.4-1.6c-5-1.3-9-0.2-14.7,0.7c-7,1.1-10.8,2.7-17.3,5.4
		c-20.6,8.7-28.1,13.1-43.7,37.2c-16.9,26.2-12.2,82-15.9,86.1c-6,6.7-11.8,10.4-20.7,15.8c-2.4,1.5-6.4,2.3-7.4-1
		c-0.5-1.5,0.2-2.5,0.8-4.1c0.3-0.8,0.7-1.2,1-2c0.5-1.5-0.8-2.6,0.2-4.1c3.7-5.2,17.8-8.9,16.5-12.2c-0.4-1.2-4,0.1-4,0.1
		c-3.3,1.4-4.8,3.8-8.4,5.6c-2.5,1.3-4.4,0.1-5.9-1.8c-1.9-2.5-0.5-6,1.6-8c5-4.8,14.4-7.7,16.7-10.6c0,0,0.6-1.2,0.3-1.8
		c-0.2-0.4-0.8-0.7-0.8-0.7c-2.9-0.7-14.4,9.9-16,6.4c-1.1-2.5-0.9-5.9,0.9-8c5.2-6,16.1-10.3,16.1-10.3s2-1.9,1.4-3
		c-0.5-0.9-2.3-0.4-3.7,0.1c-2.7,0.9-4.5,3.5-7.1,4.1c0,0-4.1,1.7-6-1.6c-0.8-1.3-1-3.5,2.1-5.8c3.4-2.5,8.2-5.7,10.3-7.3
		c1-0.8,6.7-4,5.7-5c0,0-0.9-0.5-1.6-0.6c-0.9-0.2-2.5,0.3-2.5,0.3s-0.3,1-6.1,3.3c-1.8,0.7-3.5,0-3.6-1.5c-0.2-2.4,2.4-5.1,4.1-6.3
		c5.3-3.5,13-7.6,14.8-10.6c0,0,0.7-1.5,0.2-2.2c-0.3-0.4-1.1-0.7-1.1-0.7c-5.2,0.6-7.9,7.2-12.7,4.9c-1.8-0.8-1.2-2.3-1-3.8
		c0.2-2.7,2.6-4.1,4.7-5.2c6.7-3.4,11.8-5.7,17-8.3c0,0,3.5-2.4,2.5-3.9c-0.9-1.2-3.7-0.4-3.7-0.4s-1.7,1.5-3,2
		c-1.2,0.4-1.7,0.7-3.1,0.3c-1.6-0.5-2.9-2.1-2.4-3.1c6.7-12.3,19.5-21.8,32.4-29.2C75.6,6.9,95.2,1.1,107.8,1.3l9.6-0.5
		c1.1-0.1,2-0.6,3.1-0.6c1.9,0,4.1-0.4,5.9-0.1c1.6,0.2,2.9,1.2,4.3,1.2c1.1,0,2.1-1.2,3.2-1.2L134.5,1.3L134.5,1.3z"/>
	<path class="st0" d="M197.3,108.9c-0.4-1.9-3-1-4.8-0.6c-2.1,0.4-5,1.3-4.6,2.9c0.2,1,1.4,0.9,2.5,1.2c1.5,0.3,2.3-0.1,4-0.5
		C195.9,111.5,197.6,110.5,197.3,108.9L197.3,108.9z M213,92.2l-1.9,8.6l-0.1,7.3c2.2,1.9,4.4,7.2,6.8,12.4
		c2.1,4.4,4.6,8.7,5.6,11.3c0,0,1.2,4.7-0.4,6.8c-1,1.3-3.6,2.3-3.6,2.3l-8.6,0.6c1.3,3.6,1.7,12.5-1.9,15.1l3.2,2.8
		c-2.5,3.5-3,7.7-1.9,13.1c0.7,3.3,2.8,7.7,2.7,10.7c-0.1,2.2-2.5,1.9-3.4,4.1c-3.1,3.3-44.9,0-47.9,0c-2.5-2-22.9-11.9-23.9-11.5
		c0,0-2.4-2.2-3.1-4c-0.7-1.9-0.5-5.2-0.5-5.2c4.5-9.7,3.4-19.9,3.4-30.5c4.6-3.4,7.9-5.9,9.5-9.1c2.5-4.9,2.1-9.3,5.7-13.4
		c1.3,0,51.7-20,57.4-23L213,92.2L213,92.2z"/>
	<path class="st0" d="M128.4,174.6c0,0,10.2,11.6,18,17.5c8.1,6.1,10.1,7.1,22.6,12.8v27.5l-3,1.2c-13.1-8.3-23.1-12-38.7-17.5
		c-12.5-4.3-13.3-6.8-32.7-8.8c-3-0.3-3.8-3.2-4.2-6c-0.4-2.4,0.5-3.8,1.4-6c3.1-7.5,9.2-6.4,17.2-11.7c5.7-3.8,10-8.4,11.8-10.1
		c0.9-0.1,3.1-0.4,3.1-0.4S127,173.9,128.4,174.6L128.4,174.6z"/>
	<path class="st0" d="M165.9,240.1c5.8,1.8,9.4-7.8,12.9-11.7c5.1,2.7,13.7,15.4,17.4,19.2c0,0,12.9,16.3,13.6,19.1l-1.6,1.6H166
		c0,0-5.7-9.9-11-14.6c-9.8-8.7-18.6-10.6-31.4-12c-18.8-2.1-51-1.8-51-1.8h-14l-1.6-5.2c4.7-8.5,11.2-17.9,18.1-22
		c2.7-1.6,4.3-2.1,7.3-2.6c4.1-0.8,6.3,0.3,10.7,0.7C122.6,213.6,159.1,238,165.9,240.1L165.9,240.1z"/>
	<path class="st0" d="M117.6,245.1c14.4-2.1,29.8,8,35.5,21.3l-1.4,1.9h-14c-1.7-2.1-1.7-11.8-5.7-10.3c-3.3,1.2-2.9,4.8-2.3,8.7
		l-18.1-0.1c0.5-3.3,0.6-10.4-2.1-10.4c-3.7,0-4.9,10.5-4.9,10.5l-19.2-0.4c0,0,3.8-7.9,4.4-10c0,0-0.7-1.3-1.3-2
		c-4.3-4.9-7,9.7-10.8,12.8H60.6l-0.4-3.9c0.6-0.8,5.2-6.7,3.9-7.6c-5.1-3.8-11.7,10.7-15.1,11.5H28.8c-1.8-0.6-0.9-2.9-0.2-3.9
		c5.2-7.1,12.1-12.7,18.1-19.1L117.6,245.1L117.6,245.1z"/>
	<path class="st1" d="M190.5,56.7l1.3,2L206.6,46l-1.3-2L190.5,56.7L190.5,56.7z M201.6,69.7l1.2,2l16.5-10.5l-1.2-2L201.6,69.7
		L201.6,69.7z M186.2,65.6l-1.5,1l7.8,10.6l1.5-1L186.2,65.6L186.2,65.6z M196.5,62.9l1.5,1.8l15.3-12.1l-1.4-1.8L196.5,62.9
		L196.5,62.9z M232,66.7L144.6,114c0,5.3-0.2,8.1-3.3,11.5c-4.4,4.8-11,6.5-16.5,2.7c0,0-1.9-0.7-2.7,0c-0.5,0.5-0.6,1.8-0.6,1.8
		l4.8,2.9l5.2,2.8l1,2.8c-1.7,13.3-5.3,21.2-14.2,31.2c-10.3,11.6-25.9,19.3-35,18.9c-11.3-0.5-17.7-15.2-23.2-28.3
		c-6.1-14.7-8.5-30.7-8.5-47.7l3.8-4.2v-8.5c0.1-2.8,0.6-5.5,3.2-6.6c1.1-0.5,1.8-0.6,2.9-0.4l52.5,26.4c-1,2.4-2.9,4.3-4.8,5.8
		c-5.9,4.6-13.1,6.1-21.7,6c-12.2-0.1-20.3-4.6-27.9-14.2c-0.9-1-2.1-1.6-2.9-0.8c-0.6,0.6-0.1,1.5,0,2.2c8,10.5,16.8,15.1,30,15.5
		c12.2,0.4,21.1,0.3,29.1-11.7c1.1-1.7,1.7-4.4-0.1-6L60,88c-0.9-0.9-1.1-2.2-0.5-3.3c0.5-0.9,1.3-1.4,2.3-1.4l55.8,28.8l1-1.9
		L62.8,79.9c3.3-12.4,6.9-19.4,15.1-29.3c7.7-9.3,15.3-15.5,24.1-19.4c3.8-1.7,5.6,0.8,6,2.3l14.7,71.5c1.5,1,2.7,1.3,4.5,1
		c1.9-0.3,3.1-1.2,4-2.9l-2.2-77.9c2.7-2.2,4.9-2.9,8.4-2.9c3.7,0,6.1,1,8.8,3.5l-11.6,76.8l2.5,0.7L149.4,30l2.3,0.3
		c6.2,1,9.7,1.9,15.6,4.3c6.7,2.7,10.3,4.7,16.1,9l-38.8,54.4l1.9,1.4l55.3-69.9c1.5-0.8,2.6-1,4.3-0.9c1.3,0.1,2.1,0.3,3.3,0.9
		l13.2,16.5l9.9,15.1c0.4,1,0.6,1.7,0.5,2.8C232.9,65,232.6,65.7,232,66.7L232,66.7z"/>
</g>
<g>
	<g>
		<g>
			<path class="st2" d="M389,85.6h-49c-50.4,0-66.5,13.1-66.5,54.1v39.1c0,19.9,4.8,32.2,16.1,41.1c12.4,9.7,28.7,10.4,50.4,10.4h49
				c25.2,0,41.8-1.5,52.4-9.4c9.6-7,13.9-18.2,13.9-36.1c0-3-0.2-6-0.3-9.2h-42v0.3c0,18.1-10.4,21-35.3,21h-25.5
				c-25.4,0-36.7-4.1-36.7-28.3v-20c0-25.7,8.3-29.5,36.7-29.5h35.2c16.9,0,24.4,5.4,24.4,17.5v0.1h41.6c0.1-2.3,0.1-4.6,0.1-6.8
				c0-17.3-4-28.5-12.8-35.2C431,87,415.1,85.6,389,85.6L389,85.6z"/>
		</g>
		<g>
			<path class="st2" d="M634.5,87.4H480v141.2h156.2v-32.2H522.6h-1.3V195v-21.9v-1.3h1.3h105.3v-27.7H522.6h-1.3v-1.3V121v-1.3h1.3
				h111.8V87.4L634.5,87.4z"/>
		</g>
		<g>
			<path class="st2" d="M852.9,87.4h-41.1v104.1v3.6l-2.3-2.8L724.3,87.4h-63.2v141.2h41.3V125.2v-3.6l2.3,2.8l85.8,104.1h62.4V87.4
				L852.9,87.4z"/>
		</g>
		<g>
			<path class="st2" d="M1035.1,87.4H873.5V120h58.8h1.3v1.3v107.3h41.3V121.3V120h1.3h58.8V87.4L1035.1,87.4z"/>
		</g>
		<g>
			<path class="st2" d="M1232.2,87.4h-41.3v83.9c0,21.9-10.4,25.8-32.3,25.8h-24.9c-27.5,0-36.7-3.7-36.7-25.8V87.4h-41.3v97.5
				c0,34.4,16.5,45.4,67.9,45.4h49c44,0,59.6-11.9,59.6-45.4V87.4L1232.2,87.4z"/>
		</g>
		<g>
			<path class="st2" d="M1373,87.4h-114.2v141.2h41.5V193v-1.3h1.3h65.4c14.3,0,21,2.4,21,16.1v20.7h41.4v-28.2
				c0-13.9-7.3-22.6-21.7-26l0-2.5c16.7-4,23-14.5,23-38.7C1430.7,97.6,1417.8,87.4,1373,87.4L1373,87.4z M1300.4,158.3V157v-35.2
				v-1.3h1.3h69.8c11.8,0,17.1,5.4,17.1,17.5c0,12.8-2.8,20.3-17.1,20.3h-69.8H1300.4L1300.4,158.3z"/>
		</g>
		<g>
			<path class="st2" d="M1498.7,87.4h-41.4v141.2h41.4V87.4L1498.7,87.4z"/>
		</g>
		<g>
			<path class="st2" d="M1647,85.6h-51.6c-27.1,0-43.9,1.6-55,9.8c-10.7,8.1-15.1,20.9-15.1,44.2v39.1c0,21.6,4.4,33.7,15.1,41.7
				c12.3,9.1,31.4,9.8,55.2,9.8h51.4c27.9,0,44.1-1.5,55.2-9.8c10.5-8,14.9-20.7,14.9-42.5v-40.1c0-21.5-4.6-34.6-14.9-42.5
				C1691.3,87.1,1674.4,85.6,1647,85.6L1647,85.6z M1607.4,196.8c-27.7,0-40-4.1-40-28.3v-20c0-25.1,10.5-29.5,39.8-29.5h28.1
				c27.6,0,39.8,4.2,39.8,28.7v20.4c0,24.6-12.3,28.7-39.8,28.7H1607.4L1607.4,196.8z"/>
		</g>
		<g>
			<path class="st2" d="M1935.5,87.4h-41.1v104.1v3.6l-2.3-2.8l-85.2-104.9h-63.2v141.2h41.3V125.2v-3.6l2.3,2.8l85.8,104.1h62.4
				V87.4L1935.5,87.4z"/>
		</g>
	</g>
</g>
</svg>
